<svg id="visual" viewBox="0 0 960 540" width="960" height="540" xmlns="http://www.w3.org/2000/svg" xmlns:xlink="http://www.w3.org/1999/xlink" version="1.1"><rect x="0" y="0" width="960" height="540" fill="#fefefe"></rect><defs><linearGradient id="grad1_0" x1="43.8%" y1="100%" x2="100%" y2="0%"><stop offset="14.444444444444446%" stop-color="#fefefe" stop-opacity="1"></stop><stop offset="85.55555555555554%" stop-color="#fefefe" stop-opacity="1"></stop></linearGradient></defs><defs><linearGradient id="grad2_0" x1="0%" y1="100%" x2="56.3%" y2="0%"><stop offset="14.444444444444446%" stop-color="#fefefe" stop-opacity="1"></stop><stop offset="85.55555555555554%" stop-color="#fefefe" stop-opacity="1"></stop></linearGradient></defs><g transform="translate(960, 540)"><path d="M-405 0C-403 -85.7 -401 -171.4 -350.7 -202.5C-300.5 -233.6 -202 -210 -135.5 -234.7C-69 -259.3 -34.5 -332.2 0 -405L0 0Z" fill="#020940"></path></g><g transform="translate(0, 0)"><path d="M405 0C397.7 76.5 390.3 152.9 350.7 202.5C311.2 252.1 239.3 274.7 175.5 304C111.7 333.2 55.8 369.1 0 405L0 0Z" fill="#020940"></path></g></svg>