<svg id="visual" viewBox="0 0 540 960" width="540" height="960" xmlns="http://www.w3.org/2000/svg" xmlns:xlink="http://www.w3.org/1999/xlink" version="1.1"><rect x="0" y="0" width="540" height="960" fill="#ffffff"></rect><defs><linearGradient id="grad1_0" x1="0%" y1="100%" x2="100%" y2="0%"><stop offset="30%" stop-color="#ffffff" stop-opacity="1"></stop><stop offset="70%" stop-color="#ffffff" stop-opacity="1"></stop></linearGradient></defs><defs><linearGradient id="grad2_0" x1="0%" y1="100%" x2="100%" y2="0%"><stop offset="30%" stop-color="#ffffff" stop-opacity="1"></stop><stop offset="70%" stop-color="#ffffff" stop-opacity="1"></stop></linearGradient></defs><g transform="translate(540, 960)"><path d="M-513 0C-507.7 -67.2 -502.4 -134.5 -474 -196.3C-445.5 -258.2 -393.7 -314.6 -333.8 -333.8C-273.8 -352.9 -205.5 -334.8 -148.5 -358.5C-91.5 -382.1 -45.7 -447.6 0 -513L0 0Z" fill="#701610"></path></g><g transform="translate(0, 0)"><path d="M513 0C509 68.6 505 137.2 474 196.3C442.9 255.5 384.9 305.2 325.3 325.3C265.7 345.4 204.5 335.8 150 362.2C95.5 388.5 47.8 450.8 0 513L0 0Z" fill="#701610"></path></g></svg>