<svg id="visual" viewBox="0 0 540 960" width="540" height="960" xmlns="http://www.w3.org/2000/svg" xmlns:xlink="http://www.w3.org/1999/xlink" version="1.1"><rect x="0" y="0" width="540" height="960" fill="#fefefe"></rect><defs><linearGradient id="grad1_0" x1="0%" y1="100%" x2="100%" y2="0%"><stop offset="30%" stop-color="#fefefe" stop-opacity="1"></stop><stop offset="70%" stop-color="#fefefe" stop-opacity="1"></stop></linearGradient></defs><defs><linearGradient id="grad2_0" x1="0%" y1="100%" x2="100%" y2="0%"><stop offset="30%" stop-color="#fefefe" stop-opacity="1"></stop><stop offset="70%" stop-color="#fefefe" stop-opacity="1"></stop></linearGradient></defs><g transform="translate(540, 960)"><path d="M-513 0C-412.8 -39.1 -312.5 -78.2 -282.3 -163C-252.1 -247.8 -291.9 -378.3 -256.5 -444.3C-221.1 -510.2 -110.6 -511.6 0 -513L0 0Z" fill="#020940"></path></g><g transform="translate(0, 0)"><path d="M513 0C443.3 56.7 373.5 113.4 339.5 196C305.4 278.6 307.1 387.1 256.5 444.3C205.9 501.4 102.9 507.2 0 513L0 0Z" fill="#020940"></path></g></svg>